<svg width="842" height="596" viewBox="0 0 842 596" xmlns="http://www.w3.org/2000/svg"><title>Slice 1</title><defs><linearGradient x1=".001%" y1="50.004%" x2="100.001%" y2="50.004%" id="a"><stop stop-color="#142547" offset="0%"/><stop stop-color="#003B5D" offset="100%"/></linearGradient><linearGradient x1=".818%" y1="76.626%" x2="99.18%" y2="23.365%" id="b"><stop stop-color="#806445" offset="0%"/><stop stop-color="#816546" offset=".45%"/><stop stop-color="#A18662" offset="11.81%"/><stop stop-color="#BBA07A" offset="24%"/><stop stop-color="#D0B48C" offset="37.42%"/><stop stop-color="#DEC398" offset="52.51%"/><stop stop-color="#E6CBA0" offset="70.64%"/><stop stop-color="#E9CEA2" offset="100%"/></linearGradient><linearGradient x1="-3.817%" y1="73.407%" x2="103.801%" y2="26.602%" id="c"><stop stop-color="#806445" offset="0%"/><stop stop-color="#836748" offset=".91%"/><stop stop-color="#A28763" offset="11.9%"/><stop stop-color="#BCA17A" offset="23.8%"/><stop stop-color="#D0B58C" offset="36.91%"/><stop stop-color="#DEC398" offset="51.75%"/><stop stop-color="#E7CBA0" offset="69.8%"/><stop stop-color="#E9CEA2" offset="100%"/></linearGradient><linearGradient x1="50%" y1="100.003%" x2="50%" y2=".001%" id="d"><stop stop-color="#806445" offset="0%"/><stop stop-color="#8B6E4B" offset="26.82%"/><stop stop-color="#A9885C" offset="74.18%"/><stop stop-color="#AB8A5D" offset="76.88%"/></linearGradient><linearGradient x1="98.157%" y1="21.822%" x2="17.186%" y2="79.96%" id="e"><stop stop-color="#AB8A5D" offset="0%"/><stop stop-color="#B8996C" offset="9.61%"/><stop stop-color="#CEB084" offset="29.13%"/><stop stop-color="#DDC195" offset="49.84%"/><stop stop-color="#E6CB9F" offset="72.36%"/><stop stop-color="#E9CEA2" offset="100%"/></linearGradient><linearGradient x1="0%" y1="50%" x2="100.002%" y2="50%" id="f"><stop stop-color="#1A171B" offset="0%"/><stop stop-color="#3D3D3F" offset="100%"/></linearGradient><linearGradient x1=".71%" y1="44.629%" x2="101.103%" y2="53.434%" id="g"><stop stop-color="#AB8A5D" offset="0%"/><stop stop-color="#B49467" offset="6.94%"/><stop stop-color="#CBAD81" offset="28.7%"/><stop stop-color="#DCC093" offset="51.12%"/><stop stop-color="#E6CA9E" offset="74.43%"/><stop stop-color="#E9CEA2" offset="100%"/></linearGradient><linearGradient x1="2.02%" y1="61.112%" x2="100.565%" y2="42.502%" id="h"><stop stop-color="#E9CEA2" offset="0%"/><stop stop-color="#E0C59A" offset="16.19%"/><stop stop-color="#C8AD85" offset="42.58%"/><stop stop-color="#A18562" offset="75.7%"/><stop stop-color="#806445" offset="100%"/></linearGradient><linearGradient x1="93.781%" y1="69.976%" x2="6.77%" y2="36.192%" id="i"><stop stop-color="#E9CEA2" offset="0%"/><stop stop-color="#E0C59A" offset="16.19%"/><stop stop-color="#C8AD85" offset="42.58%"/><stop stop-color="#A18562" offset="75.7%"/><stop stop-color="#806445" offset="100%"/></linearGradient></defs><g fill="none" fill-rule="evenodd"><g fill="#6F9185"><ellipse id="Oval" cx="423.063" cy="519.105" rx="322.955" ry="33.972"/></g><g fill="#41281B"><path d="M566.91 492.457c-28.88 7.727-21.726 27.872 32.53 8.747l-17.75-8.747h-14.78zM620.556 504.073c-51.37 26.582 16.296 48.256 61.665-1.472l-61.664 1.473z"/></g><path d="M511.478 434.94c11.438 18.855 29.208 37.538 55.434 57.518 10.687 3.862 21.564 6.73 32.53 8.747-1.122-2.532-3.85-9.08-6.026-15.124 6.678 1.38 14.44 2.17 21.725 1.95 1.518 5.402 3.573 11.69 5.418 16.044 20.734 1.863 41.526 1.055 61.665-1.472 27.013-30.447 52.295-86.044 52.295-86.044l-223.04 18.383z" fill="#003B5D"/><path d="M627.848 486.183c-14.744 2.965-37.39.092-48.63-5.626 9.29 7.915 33.813 12.88 48.63 5.626z" fill="#091628"/><path d="M515.46 250.332c-51.48 120.965-30.83 110.968-18.94 115.664l22.332-109.33-3.393-6.334z" fill="#E9CEA2"/><path d="M496.52 365.996l22.332-109.33-3.354-6.266c-13.64 45.043-25.165 80.878-27.77 112.823 2.714 1.377 5.994 1.67 8.79 2.773z" fill="#AB8A5D"/><path d="M495.217 351.453L515.76 250.89l-.3-.56c-23.147 54.388-31.706 82.292-33.042 96.97 3.567 1.595 7.824 2.93 12.8 4.153z" fill="#E43439"/><path d="M495.217 351.453L515.76 250.89l-.264-.49c-11.767 38.856-21.96 70.86-26.21 99.425 1.853.57 3.824 1.112 5.93 1.628z" fill="#9E2725"/><path d="M734.516 416.56c11.047-37.555 6.65-76.504-10.12-125.905-23.554-69.38-43.24-77.087-61.394-77.087l-143.076 22.1c-22.127 90.48-41.02 145.58-8.447 199.274 46.122 50.122 204.98 36.38 223.036-18.383z" fill="#E43439"/><path d="M729.742 307.494c10.85 38.77 3.94 56.332-21.18 66.575-24.468 9.977-46.34 15.61-66.58-39.025 25.362 46.587 39.674 45.1 64.14 35.122 25.122-10.243 34.47-23.9 23.62-62.673z" fill="#9E2725"/><path d="M706.123 370.166c20.9-8.52 30.867-19.422 27.386-45.163-4.17 5.052-13.317 12.786-35.435 23.458-24.267 11.71-36.454 10.226-42.57 8.36 17.703 23.92 30.845 21.41 50.618 13.346z" fill="#CABA9C"/><path d="M706.123 370.166c20.9-8.52 30.867-19.422 27.386-45.163-4.17 5.052-13.317 12.786-35.435 23.458-24.267 11.71-36.454 10.226-42.57 8.36 17.703 23.92 30.845 21.41 50.618 13.346z" fill="#E9CEA2"/><g><path d="M566.91 316.357c-5.674 43.137-7.465 40.42-.87 48.85 6.946 8.878 5.247 10.998 20.5 11.313 11.097.23 9.944.29 19.075-6.72 9.308-7.148 8.477-3.805 11.678-46.19-18.025-.506-31.374-2.653-50.383-7.253z" fill="#9E2725"/><path d="M566.91 316.357c-2.904 41.172-3.836 39.065 2 46.523 6.146 7.854 4.66 9.27 18.14 10.01 11.05.608 8.345 2.52 16.483-3.607 10.602-7.98 9.12-5.285 13.76-45.67-15.887 1.28-34.24-.426-50.383-7.256z" fill="#E43439"/></g><g><path d="M667.016 166.37c-25.38-78.993-28.29-76.095-68.152-65.874C554.38 111.9 550.85 132.4 526.902 210.81c-3.676-1.12-7.19-2.33-10.45-3.663-20.378 67.936 30.93 82.875 64.16 79.562 100.09-9.98 109.304-49.06 86.404-120.34z" fill="#E9CEA2"/><path d="M590.307 223.98c18.8.022 22.837-.605 21.152-20.825-1.566 15.97-5.754 17.11-21.153 16.825-21.89-.404-47.953-3.812-67.717-10.56-.484-.165-.97-.33-1.45-.498-.486-.173-.97-.35-1.45-.526-1.102-.406-2.188-.817-3.24-1.248-.353 1.178-.68 2.333-.99 3.48 18.368 8.062 51.353 13.325 74.847 13.352z" fill="#AB8A5D"/><path d="M99.467 29.26c9.72 1.908 19.955 4.77 31.05 8.74l-1-6c-11.89-4.887-22.856-8.29-33.34-10.455 1.07 2.335 2.165 4.902 3.29 7.716z" id="Shape" fill="url(#a)" transform="translate(553 95)"/><path d="M652.467 124.26c-14.073-35.17-22.824-31.656-53.604-23.764-23.657 6.064-35.73 14.705-45.453 33.258 36.725-10.983 64.675-16.237 99.057-9.493z" id="Shape" fill="#003B5D"/><path d="M652.467 124.26c1.325 3.313 2.697 6.96 4.14 10.99 6.84-.25 27.284-.346 26.91-2.25-11.095-3.97-21.33-6.833-31.05-8.74z" id="Shape" fill="#091628"/><path d="M598.863 100.496c3.464-.89 6.636-1.716 9.58-2.443-.77-2.127-2.55-2.4-7.552-.852-4.88 1.51-6.6 2.42-6.15 4.414 1.335-.383 2.708-.756 4.123-1.118z" fill="#091628"/><g transform="translate(570 184)"><path d="M22.306 13.525c-1.12 6.32-6.625 10.626-12.296 9.62C4.34 22.14.656 16.204 1.776 9.884 2.896 3.563 8.402-.745 14.072.263c5.668 1.004 9.358 6.943 8.234 13.262z" id="Shape" fill="url(#b)"/><ellipse id="Oval" fill="#41281B" transform="rotate(-79.944 7.063 10.45)" cx="7.063" cy="10.45" rx="8.713" ry="5.341"/></g><path d="M573.52 149.5c2.832-2.692 12.082-2.692 17.416 2.5 0 0 0-1.418-.834-3.5 0 0-5.916-9.418-15.583-6.75 0 0-1.418 3.5-1 7.75z" fill="#41281B"/><g transform="translate(548 190)"><path d="M10.762 8.26c-.71 3.595-3.426 6.084-6.067 5.563-2.64-.52-4.207-3.857-3.497-7.45C1.908 2.776 4.628.286 7.266.81c2.64.522 4.208 3.857 3.496 7.45z" id="Shape" fill="url(#c)"/><ellipse id="Oval" fill="#41281B" transform="rotate(-78.825 4.053 6.946)" cx="4.053" cy="6.946" rx="4.797" ry="2.939"/></g><path d="M557.936 168.166c-2.166-2.778-7-.833-8.887 1.917 0 0-.78-.417-.697-2.75 0 0 3.25-8.917 9.635-6.083 0 0 .946 3-.052 6.916z" fill="#41281B"/><path d="M73.52 125.88c-.03-.197-.077-.386-.14-.566.063.18.107.368.138.564-5.694-.19-11.62-.576-17.606-1.166C57.77 154 77.52 151.624 73.52 125.88z" fill="url(#d)" transform="translate(511 95)"/><path d="M586.52 219.88c-.03-.197-.077-.386-.14-.566.063.18.107.368.138.564-5.694-.19-11.62-.576-17.606-1.166 1.857 29.287 21.607 26.912 17.607 1.168z" fill="#E43439"/><path d="M578.77 229.324s.686-6.898.13-9.685c-.013-.05-.025-.088-.035-.136-.883-.055-1.77-.116-2.66-.18 1.177 3.358 2.178 7.298 2.565 10z" fill="#9E2725"/><g><path d="M626.203 172.346c10.166-10.71 25.713-21.844 30.987-9.386 5.896 13.932 2.818 35.638-21.174 32.744l-9.813-23.358z" fill="#806445"/><path d="M.518 17.665C9.352 5.832 23.478-7.058 30.184 4.69c7.5 13.142 7 35.06-17.166 35.014l-12.5-22.04z" fill="url(#e)" transform="translate(623 156)"/><path d="M653.393 170.934c-8.63-5.574-12.278-2.757-22.153 9.343 4.762-3.54 8.435-6.26 11.756-7.933 3.668 3.29 5.002 7.275 4.393 10.735 3.073-2.705.53-8.518-2.068-11.743 2.868-1.14 5.485-1.29 8.07-.403z" fill="#806445"/></g></g><g><g stroke="#003B5D" stroke-width="4" fill="#003B5D"><path d="M571.366 347.73c.808.62 2.775 1.796 4.73 2.025 2.016.236 3.41-.468 3.554-2.186.166-1.98-1.487-3.12-3.38-3.344l-2.11-.247.4-4.783 2.016.236c1.418.166 3.258-.145 3.397-1.825.104-1.23-.805-2.17-2.602-2.38-1.7-.198-3.598.443-4.462.872l-.668-4.947c1.373-.815 4.06-1.368 6.894-1.036 4.538.533 6.958 3.532 6.668 7.008-.215 2.578-1.577 4.416-4.185 5.165l-.006.076c2.386.77 4.157 3.167 3.896 6.306-.37 4.444-4.06 7.067-9.38 6.442-2.805-.33-5.07-1.388-6.253-2.472l1.493-4.913zM586.783 346.44c.19-2.274.256-3.652.307-4.855l3.787.444-.068 2.612.098.012c.822-2.11 2.433-2.66 3.467-2.54.394.048.565.068.877.193l-.41 4.93c-.313-.125-.65-.224-1.12-.278-1.304-.153-2.242.385-2.56 1.524-.07.257-.122.546-.15.896l-.593 7.088-4.43-.52.793-9.51zM609.24 337.767l-1.352 16.16c-.147 1.78-.25 3.595-.28 4.562l-3.937-.463-.01-1.975-.048-.006c-.948 1.536-2.453 2.01-3.854 1.844-2.805-.33-4.9-3.49-4.52-8.012.376-4.818 3.19-7.286 6.044-6.95 1.328.155 2.396.754 2.86 1.722l.05.005.62-7.41 4.428.522zm-5.476 12.022c.02-.204.037-.44.03-.675-.09-1.013-.683-1.936-1.616-2.046-1.477-.174-2.27 1.322-2.43 3.22-.184 2.19.63 3.46 1.86 3.606.884.104 1.636-.575 1.863-1.52.075-.287.13-.635.155-.955l.14-1.63z" id="Shape"/></g><g fill="#ECECED"><path d="M569.366 347.73c.808.62 2.775 1.796 4.73 2.025 2.016.236 3.41-.468 3.554-2.186.166-1.98-1.487-3.12-3.38-3.344l-2.11-.247.4-4.783 2.016.236c1.418.166 3.258-.145 3.397-1.825.104-1.23-.805-2.17-2.602-2.38-1.7-.198-3.598.443-4.462.872l-.668-4.947c1.373-.815 4.06-1.368 6.894-1.036 4.538.533 6.958 3.532 6.668 7.008-.215 2.578-1.577 4.416-4.185 5.165l-.006.076c2.386.77 4.157 3.167 3.896 6.306-.37 4.444-4.06 7.067-9.38 6.442-2.805-.33-5.07-1.388-6.253-2.472l1.493-4.913zM584.783 346.44c.19-2.274.256-3.652.307-4.855l3.787.444-.068 2.612.098.012c.822-2.11 2.433-2.66 3.467-2.54.394.048.565.068.877.193l-.41 4.93c-.313-.125-.65-.224-1.12-.278-1.304-.153-2.242.385-2.56 1.524-.07.257-.122.546-.15.896l-.593 7.088-4.43-.52.793-9.51zM607.24 337.767l-1.352 16.16c-.147 1.78-.25 3.595-.28 4.562l-3.937-.463-.01-1.975-.048-.006c-.948 1.536-2.453 2.01-3.854 1.844-2.805-.33-4.9-3.49-4.52-8.012.376-4.818 3.19-7.286 6.044-6.95 1.328.155 2.396.754 2.86 1.722l.05.005.62-7.41 4.428.522zm-5.476 12.022c.02-.204.037-.44.03-.675-.09-1.013-.683-1.936-1.616-2.046-1.477-.174-2.27 1.322-2.43 3.22-.184 2.19.63 3.46 1.86 3.606.884.104 1.636-.575 1.863-1.52.075-.287.13-.635.155-.955l.14-1.63z" id="Shape"/></g></g><g><path d="M186.635 515.674c8.82 12.1 26.27 19.873 26.27 19.873s1.24-12.28-8-25.622l-7.965-.806-10.305 6.554zM214.987 504.69c17.117 11.36 30.207 10.678 30.207 10.678s-.245-7.037-17.602-19.686l-6.963-.914-5.643 9.922z" fill="#41281B"/><path d="M154.21 462.462c9.755 16.973 20.54 34.698 32.425 53.212 5.43-.62 11.957-2.862 18.27-5.75-1.946-4.207-4.155-11.26-5.47-18.524 5.362-.785 10.225-2.588 14.756-4.727-.107 6.332.136 13.704.797 18.018 5.484-3.196 10.087-6.492 12.605-9.007 7.16-15.808 14.16-30.632 21.045-44.53-13.862 5.44-50.926 15.023-94.426 11.31z" fill="#142547"/><path d="M220.515 483.162c-8.095 3.146-25.855 8.16-29.357 8.49 6.915 1.874 22.036-3.02 29.357-8.49z" fill="#091628"/><g><path d="M475.406 237.92c-67.222-36.07-125.624-58.692-182.12-72.956-186.96-47.2-290.613 29.85-142.544 291.415 17.694 2.803 69.694 2.14 99.487-8.417 66.516-133.24 122.5-179.455 209.45-181.354 25.7-.563 34.878-1.252 39.65-6.262 4.27-4.485 3.97-7.458-23.924-22.427z" fill="#142547"/><path d="M145.606 393.88c-.12 9.49-5.767 10.038-13.074 10.42-7.202.375-10.77-3.47-12.954-8 1.582 3.39 3.217 6.82 4.9 10.288 1.998 1.173 5.092 1.812 10.048 1.476 7.3-.494 15.08-1.2 15.2-10.693.12-9.492-1.114-49.875 11.337-73.5-15.547 21.072-15.337 60.515-15.457 70.01z" fill="#091628"/><path d="M146.25 375.7c-.002 0-.002 0 0 0-24.16 1.46-31.378-.705-37.468-3.783 4.575 10.976 12.317 27.642 10.796 24.382 2.183 4.53 5.752 8.375 12.954 8 7.308-.382 12.954-.93 13.074-10.42.04-3.23.045-9.926.643-18.18z" fill="#E9CEA2"/><g transform="translate(102 340)" fill="#ECECED"><ellipse id="Oval" transform="rotate(253.167 12.829 23.061)" cx="12.829" cy="23.061" rx="5.211" ry="3.925"/><ellipse transform="rotate(253.16 7.158 8.237)" cx="7.158" cy="8.237" rx="6.158" ry="4.64"/></g><path d="M461.66 266.565c24.19-.557 33.022-1.337 37.67-6.216 4.27-4.487 3.97-7.46-23.925-22.43.596 4.106.385 17.33-13.744 28.645z" fill="#E9CEA2"/><g fill="#ECECED"><path d="M467.902 241.863c-.683 1.864-3.677 2.478-6.687 1.375-3.01-1.104-4.896-3.505-4.215-5.368.682-1.86 3.674-2.476 6.688-1.372 3.01 1.102 4.895 3.504 4.214 5.365z" id="Shape"/><path d="M453.747 235.128c-.87 2.376-4.684 3.158-8.52 1.752-3.84-1.406-6.244-4.467-5.373-6.843.868-2.372 4.682-3.154 8.522-1.75 3.836 1.41 6.24 4.47 5.37 6.84z"/></g><path d="M367.575 274.75c34.267-63.46-6.007-88.65-11.173-90.44l-.075-.103c-3.193-1.144-6.376-2.262-9.545-3.346 5.265 1.842 50.45 24.11 20.793 93.89z" fill="#091628"/><path d="M260.192 268.173l-35.606 5.302c7.22 14.567 9.498 67.256 3.188 116.003h-.002c18.79-49.558 41.774-95.07 46.27-116.16l-13.85-5.145z" fill="#ECECED"/><g><path d="M251.85 285.726l-9.16.55s-.698 20.335-11.24 43.824c.063 18.496-1.073 39.265-3.678 59.372 8.838-23.312 18.604-45.722 26.938-65.12.27-11.078-.06-26.173-2.86-38.626z" fill="#E43439"/><path d="M251.85 285.726l-9.16.55s-.08 2.3-.584 6.228c4.17 2.377 7.333 2.67 11.084.56-.366-2.512-.808-4.973-1.34-7.338z" fill="#9E2725"/><path d="M248.765 275.78c11.292.035 15.337 4.737 10.51 9.285-8.618 8.12-12.623 7.562-22.313.15-4.198-3.208.53-9.467 11.803-9.434z" fill="#E43439"/></g><g><path d="M229.274 376.18c-1.697 4.274-3.38 8.592-5.03 12.94-6.757 17.818-12.97 36.16-17.59 54.076l3.528.356c4.617-17.918 10.83-36.258 17.588-54.076 0 0 0-.004.002-.006.57-4.407 1.07-8.848 1.502-13.29z" fill="#091628"/><path d="M218.012 416.975s35.17-68.43 70.124-102.97c0 0-7.188-1.68-11.522-1.538l40.302-53.694-13.484-1.797s-20.118-.922-24.84 18.202c-5.166 20.935-29.588 65.69-49.95 114.624-3.66 8.798-7.187 17.73-10.45 26.682l-.18.49z" fill="#091628"/><path d="M218.012 416.975s32.97-69.52 66.807-105.154c0 0-7.238-1.447-11.566-1.167l38.57-54.95-13.533-1.367s-20.14-.28-24.248 18.984c-4.496 21.09-27.48 66.602-46.27 116.158-3.38 8.91-6.622 17.95-9.597 27l-.163.497z" fill="#142547"/><path d="M197.608 312.795c11.08 17.105 20.625 67.696 21.23 95.874h.006c2.004-6.298 4.11-12.57 6.285-18.783v-.006c5.083-48.89 1.476-101.498-6.107-115.878l-36.832-7.92c15.484 17.466 27.722 47.644 27.722 47.644-4.71-1.07-12.304-.93-12.304-.93z" fill="#091628"/><path d="M202.2 311.717c10.644 17.38 18.91 68.194 18.807 96.377h.006c2.162-6.24 4.424-12.46 6.758-18.616l.003-.006c6.312-48.745 4.03-101.43-3.188-115.997l-36.62-8.848c15.038 17.852 26.51 48.33 26.51 48.33-4.68-1.19-12.276-1.24-12.276-1.24z" fill="#142547"/><path d="M226.594 389.36c-1.928 5.08-3.803 10.208-5.617 15.355.02 1.153.033 2.288.03 3.378h.005c1.003-2.895 2.03-5.78 3.074-8.66.15-.42.303-.84.456-1.26 1.06-2.91 2.133-5.813 3.228-8.696 0 0 0-.004.002-.006.197-1.518.372-3.04.554-4.563-.576 1.49-1.165 2.955-1.732 4.452z" fill="#091628"/></g></g><g><path d="M248.03 452.387c-4.95 1.894-12.57 4.238-22.198 6.348-2.804.613-5.776 1.206-8.904 1.762-6.475 1.152-13.598 2.146-21.242 2.825-3.912.35-7.96.61-12.12.775-9.103.36-18.75.238-28.747-.588.485.842.978 1.69 1.47 2.537 9.85.847 18.883 1.043 27.588.78.486 4.125 1.127 8.44 1.99 12.548 0 0 22.903-1.04 36.94-7.396 0 0 1.312-4.11 2.503-10.324 9.44-2.157 16.702-4.59 21.36-6.506.453-.924.907-1.846 1.36-2.763zm-32.147 14.493c-7.412 2.594-11.02 2.778-19.01 3.423-.35-1.488-.615-2.858-.822-4.17 7.448-.624 14.304-1.563 20.465-2.68-.21 1.386-.42 2.578-.632 3.427z" fill="#091628"/><path d="M251.248 445.915c-30.624 11.757-85.703 12.323-101.318 9.028 1.64 2.912 3.32 5.85 5.024 8.81 46.34 4.27 80.837-5.992 93.026-11.276l.006-.002c1.092-2.21 2.18-4.395 3.265-6.556l-.002-.005z" fill="#41281B"/><path d="M229.627 443.723s-18.27-1.846-44.74.532c0 0 .273 18.097 3.45 33.184 0 0 22.9-1.044 36.938-7.398.002-.002 3.897-12.184 4.352-26.32zm-11.273 21.22c-7.412 2.592-11.02 2.78-19.012 3.42-1.477-6.312-1.66-10.658-1.078-16.414 8.654-.778 15.355-1.03 22.144-1.566-.632 4.966-1.343 11.698-2.054 14.558z" fill="#ECECED"/><path d="M186.25 464.138c4.23-.15 8.286-.41 12.144-.758-.217-1.51-.343-2.945-.396-4.372-4.188.276-8.282.466-12.214.58.134 1.47.29 2.99.466 4.55z" fill="#6F7072"/><path d="M202.76 457.28c-9.367.79-18.482 1.133-26.51 1.15.27 1.595.562 3.12.87 4.562 9.4-.003 18.015-.577 25.756-1.475-.096-1.38-.14-2.797-.115-4.236z" fill="#ECECED"/></g><g><path d="M321.66 215.124c-4.555-2.296-9.9-4.013-15.708-5.27h.002c-4.938-21.1-2.728-56.28-1.604-71.853 1.124-15.57 8.187-23.372-34.383-50.08-42.567-26.707-68.91-41.02-101.03 46.266-32.12 87.284-25.587 113.04 3.69 127.65 32.828 16.38 77.955 21.318 108.508 10.062 30.553-11.255 43.448-19.178 40.524-56.774z" fill="#E9CEA2"/><path d="M321.66 215.124c-.712-.358-1.448-.697-2.196-1.028-.237-.104-.48-.207-.72-.31-.538-.23-1.085-.448-1.64-.663-.27-.104-.53-.21-.8-.312-.696-.257-1.406-.503-2.125-.74-.454-.15-.915-.292-1.376-.434-.308-.095-.615-.188-.926-.28-.55-.16-1.102-.318-1.66-.47l-.025-.007c-1.383-.372-2.798-.714-4.24-1.025-23.855-5.162-55.57-2.402-72.915 1.397 2.32-8.942 2.955-8.75-4.473-9.15-7.312-.392-7.437-.37-9.45 13.858-6.145 3.4-9.198 8.325-10.387 16.806 3.29-10.243 6.27-12.936 17.793-16.42 17.936-5.42 69.515-9.345 95.414 3.398-.066-1.494-.15-3.02-.275-4.62z" fill="#AB8A5D"/><path d="M226.877 212.822c2.535-.767 5.735-1.526 9.414-2.234 2.786-11.492 4.222-11.22-3.84-11.653-7.556-.405-7.44-.37-9.655 15.3h.002c1.26-.504 2.616-.97 4.08-1.413z" fill="#ECECED"/><path d="M56.208 86.71C19.108 68.92-3.596 41.02.996 18.874 3.964 4.553 19.006.303 40.816 0l-1.56 3.325c-17.285.663-29.055 5.487-31.22 15.935-3.223 15.544 14.21 41.99 51.747 59.99l-3.575 7.46z" fill="url(#f)" transform="translate(120 143)"/><path d="M179.784 222.25c-1.534-.734-3.02-1.488-4.49-2.252-1.57 1.176-2.826 2.827-3.51 4.843-.27.795-.425 1.598-.492 2.397 1.61.843 3.244 1.67 4.916 2.474l3.576-7.46z" fill="#1A171B"/><path d="M197.72 232.807c-1.77 5.21-11.296 6.688-16.39 4.958-5.095-1.73-7.79-7.355-6.02-12.567 1.77-5.212 7.33-8.032 12.426-6.305 5.098 1.73 11.754 8.7 9.983 13.914z" fill="#3D3D3F"/><path d="M171.19 173.498c-5.565.496-10.55-.853-14.262-3.635-.325 1.096-.643 2.176-.95 3.243 4.356 2.04 9.713 2.255 15.212.392z" fill="#806445"/><path d="M32.983 41.688c5.244-20.29 2.556-29.73-6.592-36.366-2.753-2-5.255-3.24-7.517-3.88C11.237-.71 6.338 4.003 3.61 9.6c-9.27 19.05 1.855 32.298 17.58 30.897" fill="url(#g)" transform="translate(150 133)"/><path d="M177.84 159.646c-.03-9.504-20.254-21.004-22.68-8.624 1.673-2.646 4.367-3.217 7.326-2.63-1.18 2.933-4.135 11.893 3.437 12.656-4.48-4.538-.802-9.573.658-11.23 5.43 2.592 10.615 7.58 11.26 9.828z" fill="#806445"/><g fill="#41281B"><path d="M183.377 181.964c2.256 2.562 15.215 14.07 18.087 15.145-.41 2.532-.787 4.357-1.16 7.423-6.372-3.214-16.19-13.938-18.37-17.555.713-1.905.945-3.438 1.443-5.014zM304.625 135.11c1.55-13.752 5.193-22.186-34.657-47.19-42.567-26.706-68.91-41.02-101.03 46.267-.025.07-.05.14-.077.21l.016.046c2.262.64 4.764 1.88 7.518 3.88 9.146 6.636 11.836 16.075 6.592 36.365 5.09 8.036 17.308 16.396 17.308 16.396 23.48-107.278 42.463-102.89 79.832-81.003 21.777 12.756 25.322 16.835 24.5 25.03z"/></g><g><g transform="translate(251 167)"><path d="M19.973 20.544c-.79 7.84-5.395 6.983-7.996 6.718-5.59-.57-12.455-6.8-11.662-14.64.79-7.843 5.85-12.565 11.44-12 5.593.565 9.59 6.335 8.218 19.922z" fill="url(#h)"/><ellipse fill="#41281B" transform="rotate(-84.232 13.864 19.931)" cx="13.864" cy="19.931" rx="10.623" ry="6.114"/></g><g transform="translate(279 181)"><path d="M1.462 12.253c-.536 5.312 2.635 5.37 4.397 5.545 3.79.377 9.19-2.83 9.728-8.144.537-5.312-2.18-9.135-5.97-9.518-3.79-.38-7.225 2.908-8.156 12.117z" fill="url(#i)"/><ellipse fill="#41281B" transform="rotate(-84.232 5.372 12.658)" cx="5.372" cy="12.658" rx="6.883" ry="3.961"/></g></g><g fill="#41281B"><path d="M270.493 166.947c-1.846-5.972-8.69-13.396-14.52-10.812-2.022-2.73-3.064-8.305-1.93-11.176 11.316-5.086 17.923 9.246 18.274 16.654-.202 2.112-.945 3.935-1.824 5.333zM284.334 174.43c1.832-3.348 6.832-6.95 10.002-4.696 1.543-1.386 2.848-4.592 2.52-6.445-6.147-4.425-11.846 3.34-12.96 7.728-.136 1.286.083 2.468.438 3.41z"/></g></g></g></g></svg>